<?xml version="1.0" encoding="UTF-8"?>
<svg version="1.1" xmlns="http://www.w3.org/2000/svg" width="1024" height="1024">
<path d="M0 0 C5.16780822 0.00459647 10.33560393 -0.00249427 15.5034095 -0.00795984 C25.58428165 -0.01678025 35.66512376 -0.01496494 45.745997 -0.00913456 C53.95106189 -0.00458855 62.15611845 -0.00401776 70.36118424 -0.00618219 C72.12344349 -0.00664189 72.12344349 -0.00664189 73.92130395 -0.00711088 C76.30915626 -0.00775043 78.69700856 -0.00839886 81.08486087 -0.00905606 C103.39404009 -0.01473788 125.70320279 -0.0082355 148.0123793 0.00254467 C167.08694788 0.01147704 186.16149211 0.00992653 205.23606026 0.00070715 C227.47248561 -0.01003568 249.70889654 -0.01418754 271.94532412 -0.00806832 C274.32392422 -0.00743133 276.70252432 -0.00680259 279.08112442 -0.00618219 C280.83586566 -0.00571937 280.83586566 -0.00571937 282.62605621 -0.00524719 C290.80521882 -0.00353215 298.98437215 -0.00640943 307.16353333 -0.0111413 C317.1542292 -0.01679503 327.14489372 -0.01514058 337.13558608 -0.00457981 C342.21699614 0.0006174 347.29835424 0.00283758 352.37976372 -0.00387812 C402.19367693 -0.06400935 453.98766578 0.41308289 499.01901925 24.32394934 C500.62025008 25.17251771 502.23285805 25.9995315 503.84665596 26.82394934 C510.63813082 30.36900288 516.71755044 34.60000526 522.78806221 39.26144934 C523.59888253 39.87762121 524.40970284 40.49379309 525.24509346 41.12863684 C536.32105853 49.75321707 546.26195243 59.08277207 554.78806221 70.26144934 C555.52540596 71.19473059 556.26274971 72.12801184 557.02243721 73.08957434 C590.07504662 115.71604302 596.97419077 168.47300644 596.92177498 220.93498755 C596.92364859 222.74476709 596.92595145 224.55454623 596.92864031 226.36432475 C596.93469706 231.2843658 596.93463202 236.20438971 596.93344593 241.12443364 C596.93324035 246.45192271 596.93877561 251.7794065 596.9435035 257.10689306 C596.95177735 267.52561871 596.95455687 277.9443387 596.95511588 288.36306737 C596.95559268 296.84208091 596.95765557 305.32109261 596.9608165 313.80010557 C596.96961484 337.89536812 596.97423727 361.99062623 596.97348603 386.08589039 C596.97342609 388.03061311 596.97342609 388.03061311 596.97336495 390.01462317 C596.97330363 391.96174987 596.97330363 391.96174987 596.97324107 393.94821247 C596.97283503 414.963095 596.9823962 435.97795958 596.99650332 456.99283693 C597.01090922 478.62537548 597.01777116 500.25790529 597.01690954 521.89044875 C597.01657898 534.013389 597.0192637 546.13631045 597.03008759 558.25924635 C597.03924833 568.58479093 597.04132259 578.91030817 597.03457817 589.23585508 C597.03134059 594.49110848 597.03115457 599.74630959 597.03993142 605.00155783 C597.14743213 673.85227203 590.87688674 739.477334 540.47556221 791.01144934 C529.05077195 802.32366276 515.83091056 811.5179175 501.78806221 819.26144934 C501.2036335 819.59451086 500.61920479 819.92757238 500.01706612 820.27072668 C463.10318847 841.15366711 418.72778975 844.4364724 377.19008553 844.39516211 C375.37633155 844.39703525 373.56257797 844.39933793 371.74882501 844.40202743 C366.81319244 844.40808991 361.87757694 844.40801845 356.9419415 844.40683305 C351.59945725 844.40662762 346.25697828 844.41216135 340.91449654 844.41689062 C330.4645532 844.42516769 320.0146155 844.42794414 309.56466915 844.428503 C301.06083286 844.42897965 292.55699841 844.43104183 284.05316269 844.43420362 C259.89158881 844.44300292 235.73001935 844.44762425 211.56844386 844.44687315 C210.26814692 844.44683319 208.96784998 844.44679324 207.62815011 844.44675207 C206.32624721 844.44671119 205.02434431 844.44667031 203.68298981 844.44662819 C182.60593616 844.44622214 161.52890041 844.4557832 140.45185193 844.46989044 C118.75945921 844.48429379 97.06707521 844.49115842 75.3746776 844.49029666 C63.21654281 844.48996601 51.05842678 844.49265482 38.90029633 844.50347471 C28.54468874 844.51263208 18.18910841 844.51471243 7.8334985 844.50796529 C2.56217388 844.50472602 -2.7090986 844.50454805 -7.98041809 844.51331854 C-73.23961246 844.61485349 -138.72460111 839.88427097 -188.21193779 792.26144934 C-188.7128997 791.78626867 -189.21386161 791.31108801 -189.73000419 790.82150793 C-235.22676192 747.51012434 -245.45960942 688.78772737 -247.11472929 628.55403018 C-247.45405385 614.76353899 -247.35227474 600.96104786 -247.34266245 587.16749537 C-247.34036496 582.27240008 -247.34390921 577.37730809 -247.34664237 572.4822135 C-247.35105315 562.93314975 -247.35014472 553.38409393 -247.34722973 543.83502989 C-247.34495722 536.06419056 -247.34467113 528.29335343 -247.34575355 520.52251387 C-247.34590678 519.4100818 -247.34606002 518.29764973 -247.34621789 517.1515076 C-247.34653767 514.8905603 -247.34686188 512.629613 -247.34719048 510.3686657 C-247.35003149 489.24470036 -247.34677991 468.12073937 -247.34139012 446.99677474 C-247.33692272 428.92947985 -247.33770017 410.86219138 -247.34230888 392.7948966 C-247.34767803 371.73706871 -247.34975758 350.67924463 -247.34669662 329.62141615 C-247.34637812 327.36980045 -247.34606374 325.11818475 -247.34575355 322.86656904 C-247.34559928 321.75916327 -247.345445 320.65175749 -247.34528605 319.51079397 C-247.34442795 311.76208913 -247.34586842 304.01338675 -247.3482331 296.26468229 C-247.35105737 286.80340231 -247.35023799 277.34213061 -247.34495236 267.88085156 C-247.34235055 263.06729907 -247.34124944 258.2537603 -247.34460151 253.44020796 C-247.39136991 179.9810908 -244.14611738 108.76679822 -189.83693779 53.57394934 C-138.81276945 2.99229547 -67.59236235 -0.08927248 0 0 Z " fill="#032541" transform="translate(337.2119377851486,99.73855066299438)"/>
<path d="M0 0 C1.53055369 -0.00785502 1.53055369 -0.00785502 3.09202766 -0.01586872 C6.50401863 -0.03084521 9.91585931 -0.03157338 13.32788086 -0.03224182 C15.77745313 -0.03986505 18.22702301 -0.04829283 20.67658997 -0.0574646 C27.3278079 -0.07940456 33.97896558 -0.0882305 40.63021088 -0.09329104 C44.78946911 -0.09655458 48.94871816 -0.10308114 53.10797119 -0.11029243 C64.64096782 -0.12985454 76.17395593 -0.14626022 87.70697021 -0.14916897 C88.81299693 -0.14945032 88.81299693 -0.14945032 89.94136763 -0.14973736 C91.43594646 -0.1501036 92.9305253 -0.15046729 94.42510414 -0.15082847 C95.16694136 -0.15101128 95.90877857 -0.1511941 96.6730957 -0.15138245 C97.41584684 -0.151563 98.15859798 -0.15174354 98.92385674 -0.15192956 C110.94433131 -0.15546707 122.96462628 -0.18246457 134.98503864 -0.21988034 C147.34880792 -0.25805431 159.71248831 -0.27732712 172.07631779 -0.27762848 C179.00898637 -0.27821112 185.94144083 -0.28657703 192.87405396 -0.31562614 C199.40109851 -0.34285135 205.92779507 -0.3439679 212.45490074 -0.3279705 C214.84165051 -0.32616206 217.228425 -0.33279157 219.61512184 -0.34878922 C240.54813815 -0.48046875 258.48475999 2.66766116 274.31225586 17.66477966 C286.87235055 31.21913064 293.27495068 46.995511 292.98022461 65.43431091 C291.85930203 82.65098112 284.36956652 98.70205048 271.82788086 110.58665466 C258.1659957 121.57722149 242.82258154 126.60775871 225.46586609 126.53485107 C224.48235808 126.53867662 223.49885007 126.54250217 222.48553878 126.54644364 C219.21637776 126.55669615 215.94739493 126.55279627 212.67822266 126.54881287 C210.32348469 126.55316365 207.96874814 126.55834802 205.61401367 126.56430054 C199.23582119 126.57766284 192.85768807 126.57827224 186.47948432 126.57573724 C180.47104332 126.5745298 174.46261055 126.58075186 168.45417283 126.5861707 C155.82512268 126.59702977 143.19609928 126.5948916 130.56704763 126.58878585 C119.03691551 126.5836192 107.50686794 126.59486837 95.97675254 126.61388407 C84.11236501 126.63329969 72.2480174 126.64151189 60.38361388 126.63776082 C53.73281271 126.63585428 47.08207304 126.63855049 40.43128014 126.65247536 C34.17427588 126.66508612 27.91744032 126.66307875 21.66043854 126.65006447 C19.37122095 126.64770617 17.08199137 126.65040645 14.79278755 126.65868759 C-8.50015819 126.73683772 -26.77756997 123.29403675 -44.19165039 106.41087341 C-55.6041386 94.2156703 -61.6699265 78.11301874 -61.48852539 61.46946716 C-60.48584585 46.82318385 -56.14223596 34.8239877 -47.26977539 23.27415466 C-46.80829102 22.64638123 -46.34680664 22.01860779 -45.87133789 21.37181091 C-35.00586619 7.52304496 -17.24617197 -0.0440282 0 0 Z " fill="#64C5B4" transform="translate(254.269775390625,623.7258453369141)"/>
<path d="M0 0 C-1.34578125 0.51046875 -1.34578125 0.51046875 -2.71875 1.03125 C-22.85426375 8.79499744 -40.6395213 18.82259131 -57 33 C-57.84046875 33.71800781 -58.6809375 34.43601563 -59.546875 35.17578125 C-99.41015428 70.02520087 -114.83469402 119.80668386 -118.29298878 171.1363554 C-119.3720303 189.28361708 -119.14997737 207.4742757 -119.14538372 225.64543021 C-119.14517758 230.74388305 -119.15071859 235.84233042 -119.15544128 240.94078064 C-119.1637031 250.90490123 -119.1664941 260.8690159 -119.16705366 270.83313964 C-119.16753101 278.9444927 -119.16959663 287.05584383 -119.17275429 295.16719627 C-119.18154914 318.23346192 -119.18617557 341.29972293 -119.18542381 364.36599026 C-119.18538386 365.60622177 -119.1853439 366.84645329 -119.18530273 368.12426758 C-119.18526185 369.36603755 -119.18522097 370.60780751 -119.18517885 371.88720687 C-119.18477285 391.98809211 -119.1943339 412.08895858 -119.2084411 432.18983839 C-119.22285753 452.8970063 -119.22970838 473.60416508 -119.22884732 494.31133813 C-119.22851714 505.90950991 -119.23118523 517.50766202 -119.24202538 529.10582924 C-119.25120009 538.98435653 -119.25324918 548.86285522 -119.24651595 558.74138496 C-119.24328533 563.76615141 -119.24306613 568.79086323 -119.2518692 573.81562424 C-119.34924006 633.16850817 -118.03025159 696.78051098 -77.20703125 744.26171875 C-75 747 -75 747 -75 749 C-74.34 749 -73.68 749 -73 749 C-71.51953125 750.5390625 -71.51953125 750.5390625 -69.8125 752.625 C-66.8899337 756.08787267 -63.84169098 758.97510908 -60.28515625 761.7734375 C-59.86105469 762.17820312 -59.43695313 762.58296875 -59 763 C-59 763.66 -59 764.32 -59 765 C-58.45988281 765.23589844 -57.91976562 765.47179687 -57.36328125 765.71484375 C-54.3487431 767.35415458 -51.86239916 769.41248671 -49.1875 771.5625 C-42.16890506 777.06418249 -34.79531165 781.68283902 -27 786 C-26.37254883 786.34804688 -25.74509766 786.69609375 -25.09863281 787.0546875 C9.41041841 805.89390274 48.89913908 810.17147823 87.61216736 810.13371277 C89.4517948 810.13558492 91.29142184 810.13788722 93.13104826 810.14057809 C98.14733136 810.14665271 103.16359767 810.14656765 108.1798836 810.14538372 C113.60549015 810.1451786 119.03109148 810.15070903 124.45669556 810.15544128 C135.07267816 810.16372486 145.6886552 810.1664951 156.30464076 810.16705366 C164.9410917 810.16752997 173.57754081 810.16959044 182.21399117 810.17275429 C206.73966915 810.18155508 231.26534278 810.18617464 255.79102235 810.18542381 C256.78096265 810.1853939 256.78096265 810.1853939 257.79090174 810.18536337 C259.12550132 810.18532294 260.4601009 810.18528114 261.79470049 810.18523798 C283.87226943 810.18458647 305.9498191 810.19389644 328.0273829 810.2084411 C350.04965658 810.22283397 372.07192169 810.22970967 394.09420019 810.22884732 C406.44226772 810.22851633 418.79031678 810.2312204 431.13838005 810.24202538 C441.65444874 810.25116882 452.17049061 810.25327429 462.68656158 810.24651595 C468.04243758 810.24326988 473.39826223 810.24312409 478.75413322 810.2518692 C515.60781755 810.3989536 515.60781755 810.3989536 552.1875 806.25 C553.16323975 806.08226074 554.13897949 805.91452148 555.14428711 805.74169922 C587.41725392 799.90235087 618.75802819 786.47527794 642.89453125 763.953125 C644.61257461 762.35939276 646.34865335 760.88541074 648.1875 759.4375 C651.85848111 756.25598303 654.8758278 752.70956936 658 749 C659.18142578 747.65035156 659.18142578 747.65035156 660.38671875 746.2734375 C666.41169272 739.27966986 671.46744762 732.06732092 676 724 C676.39719238 723.29987793 676.79438477 722.59975586 677.20361328 721.87841797 C697.61342499 685.57423962 703.1639088 645.53090704 703.14044189 604.39697266 C703.14303166 602.55820911 703.14604649 600.71944613 703.1494453 598.8806839 C703.15744717 593.86651527 703.15930103 588.852361 703.16004276 583.83818674 C703.16190536 578.41449005 703.16945874 572.9908006 703.17617798 567.56710815 C703.18971437 555.72331848 703.19577898 543.87953221 703.20018864 532.03573608 C703.20295963 524.6259555 703.20719857 517.2161762 703.21169281 509.80639648 C703.22388049 489.25038739 703.23418005 468.69437932 703.2375679 448.1383667 C703.23789725 446.1678698 703.23789725 446.1678698 703.23823325 444.15756488 C703.23845153 442.84092892 703.23866981 441.52429296 703.2388947 440.16775894 C703.23933815 437.50018565 703.23978435 434.83261236 703.24023438 432.16503906 C703.24034377 431.50364636 703.24045316 430.84225366 703.24056586 430.16081876 C703.24430338 408.08415606 703.26155924 386.0075305 703.2855939 363.93088126 C703.30938477 341.89840357 703.3217733 319.86594296 703.32293582 297.83345222 C703.32384837 285.48459129 703.32949371 273.13577485 703.34775543 260.78692627 C703.36326139 250.26519395 703.36821575 239.74351987 703.36001733 229.22177827 C703.3561473 223.8670351 703.35685855 218.51240881 703.37107468 213.15768051 C703.52573103 151.24294301 697.66499129 89.45853774 652 43 C651.12988281 42.13117188 650.25976562 41.26234375 649.36328125 40.3671875 C648.05489663 39.05664026 646.75708863 37.73419646 645.5078125 36.3671875 C630.49789246 20.17004214 608.3393329 8.87456663 588 1 C595.14439576 -1.38146525 605.47586587 5.59625339 612.0625 8.875 C614.72064461 10.22719071 617.36387502 11.60542272 620 13 C621.02996094 13.54398438 622.05992187 14.08796875 623.12109375 14.6484375 C641.94527158 25.12050386 659.01626309 39.83758915 672 57 C672.73476563 57.93070313 673.46953125 58.86140625 674.2265625 59.8203125 C707.29433522 102.43342167 714.1861223 155.21781097 714.13371277 207.67353821 C714.13558637 209.48331775 714.13788924 211.29309689 714.14057809 213.10287541 C714.14663485 218.02291647 714.14656981 222.94294038 714.14538372 227.8629843 C714.14517814 233.19047337 714.1507134 238.51795717 714.15544128 243.84544373 C714.16371513 254.26416938 714.16649466 264.68288937 714.16705366 275.10161803 C714.16753046 283.58063158 714.16959335 292.05964327 714.17275429 300.53865623 C714.18155263 324.63391878 714.18617505 348.72917689 714.18542381 372.82444105 C714.18536388 374.76916378 714.18536388 374.76916378 714.18530273 376.75317383 C714.18524141 378.70030053 714.18524141 378.70030053 714.18517885 380.68676313 C714.18477281 401.70164566 714.19433398 422.71651025 714.2084411 443.73138759 C714.222847 465.36392614 714.22970895 486.99645595 714.22884732 508.62899941 C714.22851677 520.75193967 714.23120148 532.87486111 714.24202538 544.99779701 C714.25118612 555.32334159 714.25326037 565.64885883 714.24651595 575.97440574 C714.24327838 581.22965914 714.24309236 586.48486025 714.2518692 591.74010849 C714.35936992 660.59082269 708.08882452 726.21588466 657.6875 777.75 C646.26270974 789.06221342 633.04284834 798.25646816 619 806 C618.41557129 806.33306152 617.83114258 806.66612305 617.22900391 807.00927734 C580.31512626 827.89221777 535.93972753 831.17502307 494.40202332 831.13371277 C492.58826933 831.13558591 490.77451575 831.13788859 488.9607628 831.14057809 C484.02513022 831.14664058 479.08951472 831.14656911 474.15387928 831.14538372 C468.81139503 831.14517829 463.46891607 831.15071202 458.12643433 831.15544128 C447.67649098 831.16371835 437.22655329 831.16649481 426.77660694 831.16705366 C418.27277064 831.16753032 409.76893619 831.16959249 401.26510048 831.17275429 C377.1035266 831.18155358 352.94195714 831.18617491 328.78038164 831.18542381 C327.4800847 831.18538386 326.17978777 831.1853439 324.84008789 831.18530273 C323.53818499 831.18526185 322.2362821 831.18522097 320.8949276 831.18517885 C299.81787395 831.18477281 278.74083819 831.19433387 257.66378971 831.2084411 C235.971397 831.22284446 214.27901299 831.22970908 192.58661538 831.22884732 C180.4284806 831.22851667 168.27036457 831.23120548 156.11223412 831.24202538 C145.75662653 831.25118275 135.40104619 831.25326309 125.04543629 831.24651595 C119.77411167 831.24327669 114.50283918 831.24309871 109.2315197 831.2518692 C43.97232533 831.35340415 -21.51266333 826.62282163 -71 779 C-71.50096191 778.52481934 -72.00192383 778.04963867 -72.51806641 777.56005859 C-118.01482413 734.248675 -128.24767163 675.52627804 -129.9027915 615.29258084 C-130.24211606 601.50208965 -130.14033696 587.69959852 -130.13072467 573.90604603 C-130.12842718 569.01095074 -130.13197143 564.11585876 -130.13470459 559.22076416 C-130.13911536 549.67170041 -130.13820693 540.12264459 -130.13529195 530.57358056 C-130.13301943 522.80274123 -130.13273334 515.0319041 -130.13381577 507.26106453 C-130.133969 506.14863246 -130.13412223 505.0362004 -130.13428011 503.89005827 C-130.13459988 501.62911097 -130.1349241 499.36816367 -130.1352527 497.10721637 C-130.13809371 475.98325102 -130.13484213 454.85929003 -130.12945233 433.7353254 C-130.12498494 415.66803051 -130.12576239 397.60074204 -130.13037109 379.53344727 C-130.13574024 358.47561938 -130.13781979 337.41779529 -130.13475883 316.35996681 C-130.13444033 314.10835111 -130.13412596 311.85673541 -130.13381577 309.60511971 C-130.13366149 308.49771393 -130.13350721 307.39030815 -130.13334826 306.24934463 C-130.13249016 298.5006398 -130.13393064 290.75193741 -130.13629532 283.00323296 C-130.13911959 273.54195297 -130.1383002 264.08068127 -130.13301457 254.61940222 C-130.13041276 249.80584973 -130.12931165 244.99231097 -130.13266373 240.17875862 C-130.17943213 166.71964146 -126.9341796 95.50534889 -72.625 40.3125 C-59.46876329 27.27036265 -19.66768918 -6.72016715 0 0 Z " fill="#000000" transform="translate(220,113)"/>
<path d="M0 0 C1.33820466 -0.00599604 2.67640588 -0.01280403 4.01460266 -0.02035522 C7.62648356 -0.03791576 11.2382695 -0.04270644 14.85018897 -0.0439868 C17.11425033 -0.04541493 19.37828806 -0.04969702 21.64234352 -0.05498123 C29.562359 -0.07345052 37.48230745 -0.08165598 45.40234375 -0.08007812 C52.74993757 -0.07887844 60.09723684 -0.09995469 67.44475621 -0.13156545 C73.78142365 -0.15784211 80.11799558 -0.16844064 86.45471698 -0.16716731 C90.22668359 -0.16666089 93.99838826 -0.17216413 97.77029991 -0.19352341 C101.3237638 -0.2130986 104.87672108 -0.21290124 108.43020439 -0.19849014 C110.33112972 -0.19545132 112.23205618 -0.21194361 114.13290405 -0.22937012 C131.90235237 -0.10167738 147.32347794 6.4001157 160.0949707 18.68896484 C171.56678729 30.93292293 178.06006798 46.44856067 177.88598633 63.23754883 C177.2891636 81.22962255 169.73563374 98.2086732 156.6262207 110.60302734 C148.47451607 117.17305794 139.64450907 121.67176869 129.5324707 124.29052734 C128.93194917 124.45696054 128.33142763 124.62339375 127.71270847 124.79487038 C121.06986275 126.47991695 114.65783776 126.58639757 107.83105469 126.58105469 C106.58747696 126.58777191 105.34389923 126.59448914 104.06263733 126.60140991 C100.67369895 126.61707997 97.28500581 126.62376082 93.89604831 126.62504148 C91.76999874 126.6264706 89.64397427 126.63075462 87.51793098 126.63603592 C80.07541418 126.65450487 72.63296865 126.66271106 65.19042969 126.66113281 C58.29502498 126.65993439 51.39993478 126.68098562 44.50460953 126.71262014 C38.55177092 126.73893978 32.59903398 126.7494935 26.64613777 126.74822199 C23.10549047 126.74771665 19.56512264 126.75315786 16.02453423 126.77457809 C-7.66747765 126.90780715 -28.20935245 125.87909053 -46.2565918 108.53271484 C-46.98620117 107.79279297 -47.71581055 107.05287109 -48.4675293 106.29052734 C-49.11463867 105.65373047 -49.76174805 105.01693359 -50.4284668 104.36083984 C-61.70283431 92.49567577 -66.10924992 76.20014877 -65.86767578 60.18994141 C-65.21358282 42.13770436 -57.50297882 27.42758778 -44.4675293 15.29052734 C-30.93943157 3.80693026 -17.4607393 -0.01280363 0 0 Z " fill="#19B7D8" transform="translate(661.467529296875,274.70947265625)"/>
<path d="M0 0 C81.11790089 0 81.11790089 0 100.23046875 18.06640625 C111.92893265 30.84949594 116.37779375 45.00343162 116.25 62 C116.26160156 63.54300781 116.26160156 63.54300781 116.2734375 65.1171875 C116.24967755 74.4548488 114.9509419 82.22363063 110.4375 90.4375 C110.08743896 91.08074219 109.73737793 91.72398437 109.37670898 92.38671875 C101.4086684 106.4925662 89.75418539 114.94321301 75 121 C74.22785156 121.3196875 73.45570313 121.639375 72.66015625 121.96875 C51.02560618 130.02631055 19.4744259 126 0 126 C0 84.42 0 42.84 0 0 Z " fill="#29B9D0" transform="translate(586,624)"/>
<path d="M0 0 C3.54148371 2.81020389 6.79900287 5.809984 10 9 C10.63808594 9.61488281 11.27617187 10.22976563 11.93359375 10.86328125 C22.07785735 21.41421911 27.04865026 36.09087259 27.3125 50.5 C26.89475918 67.55775024 21.52935482 83.37684352 9.875 96.21484375 C2.19971139 103.52235812 -6.00173264 108.57777426 -16 112 C-16.84691406 112.31839844 -17.69382812 112.63679687 -18.56640625 112.96484375 C-33.54330473 117.92665592 -50.14700722 115.54047516 -64.125 108.875 C-70.70346356 105.4298289 -75.84213265 101.30629518 -81 96 C-81.63421875 95.38640625 -82.2684375 94.7728125 -82.921875 94.140625 C-94.44768237 82.20682445 -99.45959948 64.87486433 -99.2734375 48.66015625 C-98.01864328 31.86383931 -90.98601165 17.79268888 -79 6 C-78.42507813 5.42636719 -77.85015625 4.85273438 -77.2578125 4.26171875 C-56.014121 -15.40648367 -23.32093927 -15.95643213 0 0 Z " fill="#57C2BA" transform="translate(463,460)"/>
<path d="M0 0 C13.86 0 27.72 0 42 0 C50.0262243 21.78546595 50.0262243 21.78546595 53.76953125 32.4921875 C54.38014656 34.23195358 54.38014656 34.23195358 55.00309753 36.00686646 C56.27429098 39.62909109 57.54359167 43.2519743 58.8125 46.875 C60.09941013 50.54796057 61.38677022 54.22076064 62.67546082 57.89309692 C63.47008054 60.15759357 64.26367924 62.42244885 65.05610657 64.68771362 C65.41375595 65.70713043 65.77140533 66.72654724 66.13989258 67.77685547 C66.45187088 68.66774872 66.76384918 69.55864197 67.08528137 70.47653198 C67.7154591 72.21502651 68.39586086 73.9358561 69.11625671 75.63894653 C70 78 70 78 70 81 C70.66 81 71.32 81 72 81 C72.10401123 80.18764893 72.20802246 79.37529785 72.31518555 78.53833008 C73.13491561 74.30291195 74.48495128 70.43305232 75.95703125 66.38671875 C76.25642609 65.55130051 76.55582092 64.71588226 76.86428833 63.85514832 C77.84209612 61.13079743 78.82717872 58.40914147 79.8125 55.6875 C80.4887528 53.80824583 81.16461214 51.92885002 81.84008789 50.04931641 C83.88569391 44.3634169 85.94155528 38.68126219 88 33 C88.47379089 31.69165192 88.47379089 31.69165192 88.95715332 30.35687256 C92.62387936 20.23268017 96.30921447 10.11548627 100 0 C113.86 0 127.72 0 142 0 C142 41.58 142 83.16 142 126 C132.76 126 123.52 126 114 126 C113.67 95.64 113.34 65.28 113 34 C109.04 45.55 105.08 57.1 101 69 C94.46367858 88.0509856 87.81510987 107.04819446 81 126 C74.07 126 67.14 126 60 126 C49.4863438 95.39209756 39.20915044 64.71113289 29 34 C28.67 64.36 28.34 94.72 28 126 C18.76 126 9.52 126 0 126 C0 84.42 0 42.84 0 0 Z " fill="#7DC8A7" transform="translate(187,449)"/>
<path d="M0 0 C74.00704225 0 74.00704225 0 85.84765625 10.6640625 C92.14283245 17.43872387 93.66039243 24.48923856 93.40625 33.6171875 C92.48753502 41.2672565 89.79231707 47.81658303 84.0625 53.0625 C80.88621155 55.53361625 77.69897385 57.42793611 74 59 C76.17161326 60.09343525 78.34763444 61.16237137 80.55078125 62.19140625 C88.95153695 66.36207846 94.46407819 71.47688322 97.9375 80.3125 C100.24593888 88.59402447 99.89851951 96.85135509 96.328125 104.68359375 C89.52414526 116.55053489 79.69487577 120.83601831 67.15234375 124.50683594 C45.32825114 129.50736532 22.38964743 126 0 126 C0 84.42 0 42.84 0 0 Z " fill="#0BB3DE" transform="translate(743,624)"/>
<path d="M0 0 C9.24 0 18.48 0 28 0 C28 15.84 28 31.68 28 48 C45.82 48 63.64 48 82 48 C82 32.16 82 16.32 82 0 C91.24 0 100.48 0 110 0 C110 41.91 110 83.82 110 127 C100.76 127 91.52 127 82 127 C82 108.85 82 90.7 82 72 C64.18 72 46.36 72 28 72 C28 90.15 28 108.3 28 127 C18.76 127 9.52 127 0 127 C0 85.09 0 43.18 0 0 Z " fill="#62C2B4" transform="translate(321,274)"/>
<path d="M0 0 C28.38 0 56.76 0 86 0 C86 8.58 86 17.16 86 26 C66.86 26 47.72 26 28 26 C28 33.59 28 41.18 28 49 C45.82 49 63.64 49 82 49 C82 57.58 82 66.16 82 75 C64.18 75 46.36 75 28 75 C28 83.25 28 91.5 28 100 C48.13 100 68.26 100 89 100 C89 108.58 89 117.16 89 126 C59.63 126 30.26 126 0 126 C0 84.42 0 42.84 0 0 Z " fill="#0AB2DD" transform="translate(750,449)"/>
<path d="M0 0 C28.38 0 56.76 0 86 0 C86 8.58 86 17.16 86 26 C66.86 26 47.72 26 28 26 C28 33.92 28 41.84 28 50 C45.82 50 63.64 50 82 50 C82 58.25 82 66.5 82 75 C64.18 75 46.36 75 28 75 C28 83.58 28 92.16 28 101 C48.13 101 68.26 101 89 101 C89 109.58 89 118.16 89 127 C59.63 127 30.26 127 0 127 C0 85.09 0 43.18 0 0 Z " fill="#45BDC1" transform="translate(468,274)"/>
<path d="M0 0 C10.56 0 21.12 0 32 0 C33.07636719 2.85398437 34.15273438 5.70796875 35.26171875 8.6484375 C42.31322807 27.33875205 49.3714423 46.026411 56.5 64.6875 C56.91480118 65.77487457 56.91480118 65.77487457 57.33798218 66.88421631 C58.10959997 68.90632116 58.88264511 70.92787342 59.65625 72.94921875 C60.08744141 74.07674561 60.51863281 75.20427246 60.96289062 76.3659668 C61.92553477 78.92476838 61.92553477 78.92476838 63 81 C63.34253311 80.10941391 63.34253311 80.10941391 63.69198608 79.20083618 C67.46523031 69.3904012 71.23847453 59.57996623 75.01171875 49.76953125 C75.44631409 48.63940613 75.88090942 47.50928101 76.32867432 46.34490967 C77.21015268 44.05342465 78.09211251 41.76212478 78.97454834 39.4710083 C81.26947778 33.51066433 83.5549867 27.54695626 85.82519531 21.57714844 C86.28068756 20.38294281 86.73617981 19.18873718 87.20547485 17.95834351 C88.07631419 15.67452006 88.94426311 13.38959179 89.80892944 11.10342407 C90.1989212 10.08235565 90.58891296 9.06128723 90.99072266 8.00927734 C91.50199203 6.66269547 91.50199203 6.66269547 92.02359009 5.28890991 C93 3 93 3 95 0 C97.88916016 -0.34057617 97.88916016 -0.34057617 101.5390625 -0.29296875 C103.49199219 -0.2784668 103.49199219 -0.2784668 105.484375 -0.26367188 C106.86458923 -0.23860388 108.24479756 -0.21320902 109.625 -0.1875 C111.01300663 -0.17245517 112.40102867 -0.15876641 113.7890625 -0.14648438 C117.19309509 -0.1110257 120.59635622 -0.06160298 124 0 C122.03544219 6.13358565 119.82345959 12.11007866 117.3671875 18.0625 C116.84364433 19.34099823 116.84364433 19.34099823 116.30952454 20.64532471 C115.16761687 23.43143054 114.02139007 26.21573588 112.875 29 C112.06923568 30.9631416 111.26365592 32.92635897 110.45825195 34.88964844 C104.71803519 48.87112923 98.93201306 62.83357116 93.13180542 76.79025269 C86.33033267 93.15692156 79.64007156 109.56726638 73 126 C65.41 126 57.82 126 50 126 C40.04562631 102.20793917 30.43672549 78.27958986 20.859375 54.33374023 C18.65715636 48.82809014 16.45011909 43.32438456 14.24200821 37.82109547 C12.53085895 33.55428461 10.82280615 29.28623946 9.11565399 25.01782799 C8.30178207 22.98432793 7.48679227 20.9512749 6.67066193 18.91868019 C5.54313703 16.109592 4.41993303 13.29881493 3.29785156 10.48754883 C2.96137604 9.65197952 2.62490051 8.81641022 2.27822876 7.95552063 C0 2.22834776 0 2.22834776 0 0 Z " fill="#38BBC8" transform="translate(505,449)"/>
<path d="M0 0 C32.67 0 65.34 0 99 0 C99 7.92 99 15.84 99 24 C87.12 24 75.24 24 63 24 C63 57.33 63 90.66 63 125 C54.09 125 45.18 125 36 125 C36 91.67 36 58.34 36 24 C24.12 24 12.24 24 0 24 C0 16.08 0 8.16 0 0 Z " fill="#84CBA6" transform="translate(183,275)"/>
<path d="M0 0 C37.28870293 0 37.28870293 0 50 11.8671875 C57.25025136 19.35733689 60.15749699 26.72008824 60.4375 37.125 C60.25337543 42.94079667 59.3652239 47.70395517 57 53 C56.61714844 54.01126953 56.61714844 54.01126953 56.2265625 55.04296875 C52.9791189 62.74447489 46.67902065 68.13647941 39.0625 71.375 C26.1495937 76.24865423 13.92931848 75 0 75 C0 50.25 0 25.5 0 0 Z " fill="#022542" transform="translate(614,649)"/>
<path d="M0 0 C9.24 0 18.48 0 28 0 C28 41.58 28 83.16 28 126 C18.76 126 9.52 126 0 126 C0 84.42 0 42.84 0 0 Z " fill="#1FB6D3" transform="translate(671,449)"/>
<path d="M0 0 C31.10597606 -0.6380713 31.10597606 -0.6380713 39 4 C43.92979332 9.50123995 43.92979332 9.50123995 44.08984375 12.91796875 C43.72474803 18.35695878 42.45253701 21.49751171 38.86328125 25.58984375 C34.2662612 29.0689302 29.21229315 29.24142391 23.6328125 29.1953125 C22.95322479 29.1924826 22.27363708 29.18965271 21.57345581 29.18673706 C19.42378392 29.17562964 17.27454386 29.15054391 15.125 29.125 C13.65886023 29.11495795 12.19271386 29.10583425 10.7265625 29.09765625 C7.15074542 29.07743104 3.57585046 29.03826713 0 29 C0 19.43 0 9.86 0 0 Z " fill="#022745" transform="translate(770,697)"/>
<path d="M0 0 C3.58875 -0.061875 7.1775 -0.12375 10.875 -0.1875 C12.53958252 -0.22846802 12.53958252 -0.22846802 14.23779297 -0.27026367 C21.24285866 -0.32800796 28.83026669 -0.00201888 34.72265625 4.24023438 C37.32573088 6.9266944 38.32153276 9.42451401 38.5 13.0625 C37.84820245 18.1954057 36.04042291 21.73658149 32 25 C28.07691893 26.90608064 24.94506599 27.23644612 20.60546875 27.1953125 C19.52160889 27.19031738 18.43774902 27.18532227 17.32104492 27.18017578 C15.27494019 27.15286377 15.27494019 27.15286377 13.1875 27.125 C8.835625 27.08375 4.48375 27.0425 0 27 C0 18.09 0 9.18 0 0 Z " fill="#022644" transform="translate(770,647)"/>
<path d="M0 0 C0 0.33 0 0.66 0 1 C-0.65782471 1.09498779 -1.31564941 1.18997559 -1.9934082 1.2878418 C-20.24599356 3.96247492 -37.90371015 7.13317687 -55.01586914 14.20849609 C-59.69418379 16.10193874 -59.69418379 16.10193874 -63 15 C-61.06532058 14.16013916 -59.12714871 13.32831973 -57.1875 12.5 C-56.10855469 12.0359375 -55.02960938 11.571875 -53.91796875 11.09375 C-51 10 -51 10 -48 10 C-48 9.34 -48 8.68 -48 8 C-13.58663561 -0.55205291 -13.58663561 -0.55205291 0 0 Z " fill="#D9D9D9" transform="translate(268,103)"/>
<path d="M0 0 C7.00748303 -0.19525495 13.53554308 0.50373413 20.4375 1.6875 C21.47777344 1.86249023 22.51804687 2.03748047 23.58984375 2.21777344 C32.92050571 3.85578487 41.9533613 6.21290424 51 9 C51 9.66 51 10.32 51 11 C51.66 11.33 52.32 11.66 53 12 C48.58128328 11.06328374 44.18936633 10.08810304 39.84375 8.8515625 C26.72363709 5.12773691 13.48756996 2.94756215 0 1 C0 0.67 0 0.34 0 0 Z " fill="#B3B3B3" transform="translate(757,103)"/>
<path d="M0 0 C0.66 0.33 1.32 0.66 2 1 C-6.25 9.25 -14.5 17.5 -23 26 C-23 22.48401315 -22.56814673 22.16359981 -20.25390625 19.70703125 C-19.66754395 19.07998291 -19.08118164 18.45293457 -18.47705078 17.80688477 C-17.84524902 17.14873779 -17.21344727 16.49059082 -16.5625 15.8125 C-15.92812012 15.14210693 -15.29374023 14.47171387 -14.64013672 13.78100586 C-9.98553281 8.90860473 -5.1934569 4.30040214 0 0 Z " fill="#ABB5BD" transform="translate(166,142)"/>
<path d="M0 0 C0 0.66 0 1.32 0 2 C-3.3 2.66 -6.6 3.32 -10 4 C-10.33 3.34 -10.66 2.68 -11 2 C-7.12315913 0.80712589 -4.08378077 0 0 0 Z " fill="#969696" transform="translate(231,109)"/>
</svg>
